<svg width="176" height="41" viewBox="0 0 176 41" fill="none" xmlns="http://www.w3.org/2000/svg">
<g clip-path="url(#clip0_25_2)">
<path d="M171.025 8.40815L175.199 12.6108C175.345 12.7269 175.453 12.8836 175.509 13.0611C175.594 14.0955 174.811 14.1521 174.011 14.2099C173.665 14.2349 173.316 14.2602 173.033 14.365C171.629 14.7449 170.377 15.5473 169.446 16.6633C168.514 17.7793 167.949 19.1549 167.826 20.6033C167.736 20.7706 167.6 20.9083 167.433 20.9998C167.267 21.0914 167.078 21.1328 166.888 21.1193C166.668 21.0998 166.462 21.0035 166.306 20.8472L164.936 19.4678C164.946 19.5622 164.946 19.6557 164.946 19.7309V20.6408C164.946 20.6983 164.948 20.7537 164.941 20.809C164.932 20.871 164.911 20.9328 164.862 20.9972V21.0817C164.862 21.1248 164.867 21.1649 164.872 21.2056C164.882 21.2889 164.893 21.3747 164.862 21.4945C164.832 21.6062 164.829 21.7365 164.825 21.8528C164.824 21.9219 164.822 21.9861 164.815 22.0385C164.805 22.1112 164.805 22.1888 164.799 22.2663C164.793 22.3389 164.781 22.4114 164.749 22.4794C164.705 22.5746 164.69 22.6655 164.686 22.7579C164.683 22.8021 164.683 22.8466 164.683 22.8922L164.627 23.183L162.498 33.3331L162.329 34.0929L162.263 35.1999L161.325 39.9935L161.175 40.744H85.2555L84.8896 40.3781L84.8239 40.6971H76.7001L72.1785 36.1474L72.61 34.0929H70.0584L68.4731 32.4888C66.5056 33.9215 64.1241 34.6725 61.6907 34.6277C59.0749 34.7306 56.5248 33.7928 54.5988 32.0198L52.1316 29.5339L51.5969 32.0291C51.5313 32.3856 51.4468 32.7234 51.353 33.0517L51.2686 33.3613L51.1279 33.8115C51.1163 33.8506 51.1006 33.8884 51.081 33.9241C50.9413 34.3377 50.7753 34.7419 50.5838 35.1342C50.5888 35.1494 50.5888 35.1659 50.5838 35.1811C50.5592 35.2331 50.531 35.2832 50.4993 35.3312C50.3577 35.6115 50.2012 35.8839 50.0303 36.1474C49.9986 36.1953 49.9704 36.2455 49.9459 36.2975L49.8427 36.41C49.6134 36.7389 49.3627 37.0522 49.0922 37.3481C49.018 37.4223 48.9438 37.492 48.8684 37.5604C48.7914 37.6304 48.7132 37.6991 48.6325 37.7702L48.4262 37.9672C48.2961 38.0753 48.163 38.1796 48.0271 38.2801C47.915 38.363 47.801 38.4432 47.6851 38.5207C45.7518 39.6662 43.5217 40.2114 41.278 40.0873C38.1823 40.0873 35.7057 39.1867 34.1391 37.6108L29.7301 33.1736C27.969 34.1702 25.9749 34.6817 23.9515 34.6558C21.3436 34.7365 18.8089 33.786 16.8971 32.0104L14.43 29.5245L13.6326 33.3613L13.4731 34.1211H5.17108L0.630722 29.5432L0.865243 28.4363L5.85587 4.46818L6.00593 3.71772H14.3361L14.5519 3.92413V3.71772H70.6776L70.884 3.92413V3.71772H79.0078L83.5481 8.29558L83.323 9.39313L83.0791 10.5939H85.4149L85.7808 10.9598C86.8086 10.3574 87.976 10.034 89.1673 10.0217C90.0433 10.0044 90.9132 10.1708 91.721 10.5101C92.5289 10.8494 93.2567 11.354 93.8577 11.9916L93.7357 11.8509L95.9402 14.0742C97.2817 11.5508 100.293 10.0217 104.383 10.0217C107.554 10.0217 109.89 10.8284 111.306 12.2918L112.901 13.896L113.436 11.3162L113.595 10.5657H121.728L124.055 12.9016L124.383 11.3256L124.543 10.5751H140.547L140.978 11.0067C142.062 10.3671 143.303 10.0422 144.562 10.0686C145.319 10.039 146.073 10.1776 146.771 10.4745C147.468 10.7713 148.091 11.219 148.595 11.7853C148.569 11.7558 148.544 11.7263 148.519 11.6973C148.474 11.6435 148.429 11.591 148.381 11.5424L149.196 12.3575C149.906 11.6222 150.76 11.0399 151.703 10.6463C152.647 10.2528 153.661 10.0561 154.683 10.0686C155.226 10.0352 155.768 10.0814 156.294 10.2043L155.406 9.30873C155.285 9.17928 155.203 9.01821 155.17 8.84421C155.137 8.67021 155.154 8.49031 155.218 8.32547C155.283 8.16057 155.393 8.01743 155.536 7.91254C155.679 7.80765 155.848 7.74529 156.025 7.73275H156.738C156.93 7.71443 157.121 7.68626 157.31 7.6483C158.307 7.43874 159.245 7.01024 160.056 6.3937C160.868 5.77723 161.532 4.98818 162.001 4.08359C162.042 4.01362 162.079 3.94165 162.113 3.86784V3.82095C162.436 3.12615 162.632 2.37981 162.695 1.61641C162.711 1.3792 162.818 1.1571 162.992 0.995183C163.166 0.833205 163.395 0.743427 163.633 0.743999H163.708C163.85 0.757512 163.988 0.803431 164.11 0.878208C164.232 0.953042 164.335 1.05473 164.412 1.17554C165.087 1.83221 168.839 5.65017 168.839 5.65017C169.152 5.98638 169.129 6.42285 169.105 6.86446C169.09 7.13752 169.075 7.41258 169.139 7.66708C169.31 7.69771 169.483 7.7209 169.655 7.73659C169.821 7.75153 169.987 7.75966 170.153 7.76087C170.347 7.76493 170.536 7.8294 170.692 7.9454C170.848 8.06135 170.965 8.2231 171.025 8.40815Z" fill="black"/>
<path d="M43.5668 11.4945H49.4955L46.1747 27.2449C45.565 30.228 44.4017 31.9354 42.6381 33.1455C40.8543 34.1806 38.806 34.6698 36.747 34.5526C32.8258 34.5526 29.064 32.911 28.6888 28.9241H34.655C34.8426 29.8622 35.7057 30.3969 37.019 30.3969C38.792 30.3969 39.6081 29.3275 39.974 27.6483L40.3304 25.9128H40.1991C39.6756 26.4883 39.0406 26.9513 38.3327 27.2738C37.6247 27.5963 36.8587 27.7716 36.0809 27.789C32.6288 27.789 29.8895 25.0404 29.9458 21.016C30.0209 16.3256 33.079 10.9973 38.2104 10.9973C39.1828 10.9318 40.1536 11.1461 41.0081 11.6149C41.8626 12.0836 42.5649 12.7873 43.0321 13.6427H43.1353L43.5668 11.4945ZM38.473 23.3894C40.7526 23.3894 42.019 20.7628 42.0565 18.502C42.0565 16.9917 41.4655 15.4438 39.7207 15.4438C37.3379 15.4438 36.1278 18.0986 36.0903 20.3781C36.0903 21.9166 36.6813 23.3894 38.4261 23.3894M105.031 23.896C105.031 24.8997 104.167 25.3031 103.032 25.3031C101.156 25.3031 100.527 24.365 100.518 23.0517H94.6175C94.5143 27.9485 98.8858 29.1586 102.77 29.1586C107.732 29.1586 110.95 27.0104 111.016 22.7234C111.016 19.2993 108.098 18.2581 105.228 17.592C103.023 17.0855 102.057 16.7196 102.066 15.8847C102.076 15.0498 103.061 14.7121 104.027 14.7121C105.237 14.7121 106.062 15.1436 106.147 16.2506H111.879C111.813 12.1605 108.126 10.9598 104.374 10.9598C99.8145 10.9598 96.2591 13.0329 96.2028 16.9541C96.2028 20.0404 98.2854 21.1755 101.428 21.9823C103.445 22.517 105.049 22.6858 105.031 23.896ZM148.867 14.0367H148.764C148.509 13.1129 147.945 12.3042 147.167 11.7445C146.389 11.1849 145.443 10.908 144.486 10.9598C141.935 10.9598 140.378 12.2262 138.905 14.1399H138.802L139.346 11.4945H133.379L129.805 28.5864H136.044L137.92 19.365C138.351 17.3575 139.374 15.9504 140.922 15.9504C142.47 15.9504 142.676 17.1886 142.357 18.699L140.293 28.5864H146.531L148.408 19.365C148.839 17.2262 149.862 15.9504 151.409 15.9504C152.957 15.9504 153.164 17.123 152.845 18.699L150.781 28.5864H157.019L159.252 18.4269C160.19 14.1399 158.755 10.9222 154.637 10.9222C153.491 10.9175 152.363 11.2001 151.355 11.7442C150.347 12.2883 149.492 13.0765 148.867 14.0367ZM1.77513 28.5864H8.21978L13.201 4.6183H6.76575L1.77513 28.5864ZM21.1747 10.9879C25.5274 10.9879 29.6832 13.3706 29.6175 18.7646C29.5612 24.6652 25.5462 29.0836 19.4111 29.0836C15.1897 29.0836 10.9684 26.7384 11.0434 21.3725C11.1466 15.6127 15.1053 10.9879 21.1747 10.9879ZM19.5894 24.8997C22.338 24.8997 23.3417 20.9128 23.3417 18.5676C23.3417 16.8885 22.8258 15.2468 21.0152 15.2468C18.2948 15.2468 17.3661 19.4682 17.3661 21.6446C17.3661 23.3894 17.8539 24.8997 19.6269 24.8997M15.3492 4.6183L14.4111 9.41192H68.5293L69.4674 4.6183H15.3492ZM58.8764 10.9879C63.2291 10.9879 67.3848 13.3706 67.3192 18.7646C67.2629 24.6652 63.2385 29.0836 57.1034 29.0836C52.882 29.0836 48.6606 26.7384 48.7451 21.3725C48.8764 15.6127 52.8351 10.9879 58.8764 10.9879ZM57.3192 24.8997C60.0678 24.8997 61.0715 20.9128 61.0715 18.5676C61.0715 16.8885 60.5462 15.2468 58.7357 15.2468C56.0246 15.2468 55.0865 19.4682 55.0865 21.6446C55.0865 23.3894 55.5743 24.8997 57.3567 24.8997M71.6813 4.6183L70.7432 9.41192H76.9721L77.9102 4.6183H71.6813ZM66.6907 28.5864H72.9289L76.503 11.4945H70.2272L66.6907 28.5864ZM86.5968 29.1586C85.604 29.2291 84.6111 29.0216 83.7295 28.5593C82.848 28.097 82.1127 27.3982 81.6062 26.5414H81.503L79.6269 35.1905H73.3135L78.3792 11.4945H84.3079L83.8389 13.774C84.458 12.932 85.26 12.2413 86.1845 11.7538C87.109 11.2664 88.132 10.9949 89.1766 10.9598C92.9289 10.9598 95.1334 14.1774 95.0678 18.3613C94.9833 23.6239 92.2535 29.1586 86.5593 29.1586H86.5968ZM86.3529 15.8003C83.9421 15.8003 82.4599 18.8866 82.4224 21.26C82.4224 22.911 83.004 24.7496 84.9833 24.7496C87.5631 24.7496 88.6231 21.335 88.6512 19.0554C88.6512 17.5076 88.201 15.8003 86.3529 15.8003ZM122.423 25.8941H122.526L121.982 28.6052H127.91L131.485 11.5132H125.256L123.267 21.0629C122.864 23.0423 121.644 24.0836 120.106 24.0836C118.567 24.0836 118.229 22.6389 118.539 21.1286L120.556 11.5132H114.327L112.122 22.0667C111.184 26.6633 113.323 29.1399 116.907 29.1399C118.032 29.1289 119.135 28.8214 120.103 28.2482C121.071 27.675 121.872 26.8565 122.423 25.8753V25.8941ZM155.884 35.275L156.822 30.4813H82.8445L81.9064 35.275H155.884Z" fill="white"/>
<path d="M162.591 16.1849C162.53 16.1802 162.47 16.1633 162.415 16.1352C162.359 16.1072 162.31 16.0685 162.27 16.0214C162.23 15.9743 162.2 15.9198 162.181 15.8609C162.162 15.802 162.155 15.74 162.16 15.6783C162.238 14.8429 162.139 14.0003 161.869 13.2059C161.599 12.4115 161.164 11.683 160.592 11.0684C160.021 10.4538 159.326 9.96674 158.554 9.63924C157.781 9.31175 156.948 9.15117 156.109 9.16803C155.985 9.16803 155.866 9.11862 155.778 9.03065C155.69 8.94269 155.64 8.82338 155.64 8.69898C155.64 8.57458 155.69 8.45529 155.778 8.36733C155.866 8.27936 155.985 8.22994 156.109 8.22994C156.334 8.24448 156.56 8.24448 156.785 8.22994C158.451 8.05243 160.003 7.29964 161.174 6.10111C162.346 4.90258 163.062 3.33328 163.201 1.66333C163.211 1.54555 163.264 1.43568 163.351 1.35568C163.438 1.27568 163.552 1.23144 163.67 1.23182C163.732 1.23656 163.792 1.25345 163.847 1.28151C163.902 1.30957 163.951 1.34825 163.991 1.39533C164.032 1.44241 164.062 1.49696 164.081 1.55584C164.1 1.61471 164.107 1.67675 164.102 1.73838C164.024 2.57305 164.123 3.4148 164.392 4.20858C164.662 5.00235 165.096 5.73028 165.666 6.34478C166.237 6.95927 166.93 7.44649 167.701 7.77458C168.473 8.10267 169.305 8.26423 170.143 8.2487C170.267 8.2487 170.387 8.29813 170.475 8.38609C170.563 8.47405 170.612 8.59335 170.612 8.71775C170.612 8.84215 170.563 8.96146 170.475 9.04942C170.387 9.13738 170.267 9.18679 170.143 9.18679C168.361 9.21623 166.652 9.90277 165.345 11.1147C164.038 12.3266 163.224 13.9785 163.061 15.7534C163.051 15.8712 162.998 15.9811 162.911 16.0611C162.824 16.1411 162.71 16.1853 162.591 16.1849Z" fill="white"/>
</g>
<defs>
<clipPath id="clip0_25_2">
<rect width="175" height="40" fill="white" transform="translate(0.630722 0.743997)"/>
</clipPath>
</defs>
</svg>
